<svg id="svg" version="1.1" xmlns="http://www.w3.org/2000/svg" xmlns:xlink="http://www.w3.org/1999/xlink" width="400" height="128.45953002610966" viewBox="0, 0, 400,128.45953002610966"><g id="svgg"><path id="path0" d="M399.916 64.167 C 399.916 99.504,399.935 113.960,399.958 96.292 C 399.982 78.623,399.982 49.710,399.958 32.042 C 399.935 14.373,399.916 28.829,399.916 64.167 M15.878 8.270 C 15.232 9.850,15.899 23.859,16.847 28.623 L 17.187 30.329 16.034 31.706 C -5.641 57.603,0.873 96.374,29.833 113.838 C 32.233 115.285,38.466 118.242,38.505 117.951 C 38.507 117.932,38.576 117.242,38.658 116.417 C 38.740 115.592,39.036 112.742,39.315 110.083 C 39.891 104.598,40.466 98.897,40.593 97.417 C 40.640 96.867,40.787 95.217,40.919 93.750 C 41.872 83.210,42.732 72.826,43.175 66.500 C 44.147 52.628,44.382 51.329,46.250 49.469 C 48.957 46.775,54.835 48.738,60.668 54.283 C 61.564 55.136,62.411 55.833,62.550 55.833 C 63.398 55.833,66.860 53.864,69.582 51.835 C 70.566 51.101,71.426 50.500,71.492 50.500 C 71.845 50.500,72.777 53.710,73.082 55.980 L 73.315 57.710 74.217 58.514 C 77.078 61.063,75.183 62.238,68.215 62.236 C 64.070 62.235,64.191 62.265,64.562 61.337 C 64.969 60.320,64.786 58.038,64.242 57.364 C 64.164 57.266,62.500 58.170,62.500 58.311 C 62.500 58.387,62.620 58.689,62.767 58.984 C 64.315 62.086,58.709 63.445,49.260 62.258 C 48.165 62.120,47.234 62.044,47.191 62.087 C 47.147 62.131,47.236 62.167,47.389 62.167 C 47.733 62.167,47.740 62.450,47.417 63.224 C 45.660 67.428,48.440 72.890,52.910 74.016 C 53.514 74.168,53.672 74.274,53.601 74.481 C 52.267 78.342,52.152 79.030,52.568 80.669 C 53.086 82.709,54.357 84.996,56.129 87.073 L 56.954 88.039 56.076 89.314 C 53.853 92.541,52.169 96.270,51.497 99.454 C 49.914 106.949,52.385 110.765,58.916 110.911 L 60.916 110.955 61.750 116.019 L 62.583 121.083 63.317 121.136 C 66.896 121.392,74.157 116.514,76.125 112.532 C 77.472 109.806,77.023 108.252,73.953 105.020 C 70.259 101.132,67.737 96.964,66.270 92.322 C 66.026 91.549,65.754 90.698,65.667 90.430 C 65.456 89.785,66.229 88.747,67.832 87.525 C 69.034 86.608,69.939 85.427,70.532 83.999 C 70.957 82.976,70.961 82.976,72.365 84.000 C 73.733 84.998,73.762 85.002,73.893 84.208 C 74.345 81.475,73.223 76.929,71.545 74.694 C 71.074 74.067,71.114 74.000,72.187 73.605 C 72.610 73.450,73.320 73.064,73.763 72.749 C 74.629 72.134,74.826 72.186,74.831 73.032 C 74.834 73.661,76.034 82.034,76.737 86.333 C 77.943 93.717,80.426 105.166,81.905 110.167 C 82.027 110.579,82.330 111.629,82.578 112.500 C 83.419 115.458,83.165 115.313,85.308 114.059 C 108.990 100.211,118.568 69.911,107.223 44.727 C 94.663 16.845,61.412 4.590,33.851 17.685 C 31.451 18.825,31.703 18.791,29.951 18.226 C 24.403 16.439,19.653 13.150,16.845 9.151 C 16.141 8.148,15.986 8.007,15.878 8.270 M20.592 18.418 C 24.038 20.890,30.047 22.746,36.493 23.331 C 44.493 24.056,50.194 27.733,54.122 34.702 C 54.602 35.554,54.996 36.175,54.997 36.083 C 55.057 32.235,51.578 25.788,48.703 24.417 C 47.950 24.058,47.766 23.774,48.375 23.912 C 57.274 25.929,62.508 28.862,66.063 33.825 C 67.018 35.158,67.020 35.069,66.078 32.837 C 64.494 29.087,62.136 25.764,60.010 24.290 C 59.458 23.907,59.534 23.871,61.342 23.661 C 69.030 22.768,75.421 24.215,76.929 27.190 C 80.446 34.131,74.495 45.968,64.543 51.826 C 63.098 52.676,63.365 52.760,60.724 50.626 C 52.325 43.841,46.066 43.384,43.125 49.341 C 42.546 50.515,41.667 53.531,41.667 54.345 C 41.667 54.803,40.822 54.706,38.583 53.990 C 30.596 51.434,23.809 43.340,21.509 33.629 C 20.723 30.313,19.849 24.628,19.502 20.583 C 19.408 19.483,19.290 18.340,19.241 18.042 C 19.127 17.349,19.088 17.338,20.592 18.418 M214.500 26.017 C 193.047 27.543,178.759 44.847,179.218 68.750 C 179.695 93.616,195.927 109.506,219.474 108.158 C 242.299 106.852,256.191 90.532,255.785 65.500 C 255.374 40.142,238.798 24.290,214.500 26.017 M296.667 26.003 C 274.626 27.683,259.824 46.346,261.319 70.571 C 262.798 94.556,278.775 109.467,301.596 108.161 C 323.756 106.893,337.478 91.546,337.952 67.500 C 338.469 41.263,321.411 24.118,296.667 26.003 M144.863 26.169 C 129.568 27.764,119.673 37.060,119.673 49.833 C 119.673 60.699,126.362 67.831,141.954 73.592 C 152.158 77.363,155.177 80.047,154.972 85.167 C 154.856 88.043,153.208 90.456,150.443 91.798 C 144.524 94.671,132.212 93.385,123.463 88.980 C 122.939 88.716,122.449 88.500,122.374 88.500 C 122.300 88.500,122.038 89.344,121.792 90.375 C 121.546 91.406,120.739 94.716,120.000 97.730 C 119.260 100.745,118.677 103.230,118.703 103.254 C 118.895 103.428,121.302 104.540,122.250 104.892 C 131.329 108.264,143.426 109.107,152.585 107.005 C 167.176 103.657,175.247 92.747,173.057 79.333 C 171.557 70.150,165.441 64.447,151.250 58.998 C 141.471 55.244,138.654 53.194,137.974 49.337 C 136.470 40.797,150.932 37.728,164.702 43.664 C 165.509 44.012,166.198 44.249,166.234 44.190 C 166.322 44.043,170.167 30.190,170.167 30.018 C 170.167 29.641,165.035 27.850,162.177 27.229 C 157.359 26.182,149.405 25.695,144.863 26.169 M368.500 26.161 C 353.529 27.798,343.928 36.443,343.228 48.917 C 342.616 59.838,349.851 67.885,365.333 73.503 C 377.068 77.761,380.724 82.038,377.868 88.167 C 374.842 94.659,360.353 95.140,347.430 89.175 C 345.948 88.491,345.677 88.482,345.669 89.116 C 345.668 89.225,344.917 92.365,344.000 96.092 C 342.013 104.171,342.064 103.231,343.574 103.928 C 353.807 108.656,369.619 109.522,379.965 105.921 C 390.835 102.137,397.000 93.970,397.000 83.352 C 397.000 74.094,392.330 67.278,382.604 62.343 C 380.367 61.208,379.028 60.639,373.333 58.406 C 364.665 55.008,361.808 52.694,361.545 48.858 C 360.966 40.401,375.575 37.759,388.863 43.915 C 389.951 44.419,389.606 45.204,391.799 37.250 C 394.054 29.072,393.910 29.995,393.000 29.552 C 387.701 26.973,375.949 25.346,368.500 26.161 M221.746 40.673 C 225.438 41.649,228.629 43.810,231.078 46.993 C 238.466 56.594,238.847 75.562,231.865 86.167 C 225.172 96.331,210.845 96.626,203.536 86.750 C 195.884 76.411,196.471 55.497,204.676 46.083 C 208.937 41.195,215.661 39.064,221.746 40.673 M302.139 40.336 C 312.295 41.654,318.922 52.188,318.915 67.000 C 318.907 83.509,311.514 93.877,299.750 93.877 C 287.774 93.877,280.440 83.805,280.422 67.333 C 280.402 49.467,289.109 38.644,302.139 40.336 M50.691 62.825 C 51.640 63.005,52.829 63.211,53.333 63.285 C 54.484 63.453,54.640 63.885,53.840 64.685 C 53.321 65.205,52.770 65.279,51.982 64.933 C 51.297 64.633,51.492 67.239,52.235 68.311 C 54.771 71.971,60.721 68.504,58.693 64.548 C 58.495 64.162,58.333 63.817,58.333 63.780 C 58.333 63.722,60.297 63.529,61.736 63.445 C 63.025 63.370,62.924 67.640,61.582 69.937 C 57.173 77.483,45.290 72.366,47.768 63.989 C 48.273 62.280,48.121 62.341,50.691 62.825 M65.917 63.000 C 68.066 63.286,68.167 63.312,68.167 63.595 C 68.167 64.094,67.675 64.790,67.176 64.996 C 66.694 65.196,66.432 65.182,65.808 64.924 C 64.962 64.574,65.346 67.398,66.295 68.508 C 69.192 71.892,74.512 68.206,72.417 64.266 C 72.188 63.835,72.000 63.460,72.000 63.432 C 72.000 63.404,72.505 63.334,73.123 63.277 C 73.740 63.219,74.607 63.042,75.049 62.883 C 75.954 62.557,76.012 62.593,76.347 63.667 C 77.558 67.551,75.315 71.917,71.438 73.220 L 70.627 73.493 69.865 72.823 C 68.282 71.429,66.356 70.505,63.786 69.906 C 62.738 69.661,62.510 69.553,62.598 69.343 C 63.261 67.762,63.423 65.239,62.955 63.791 C 62.650 62.848,62.847 62.609,63.833 62.730 C 64.154 62.769,65.092 62.891,65.917 63.000 M64.441 71.183 C 68.681 72.480,71.666 76.278,72.091 80.912 L 72.213 82.241 71.648 81.811 C 69.611 80.259,67.042 79.705,64.469 80.265 C 61.199 80.977,58.326 80.629,55.709 79.204 C 54.393 78.487,54.419 78.543,54.743 77.117 C 55.247 74.905,55.558 74.483,56.917 74.169 C 58.523 73.799,59.737 73.107,60.917 71.891 C 62.090 70.682,62.520 70.595,64.441 71.183 M58.593 84.937 C 60.210 85.684,62.676 86.320,64.458 86.450 L 65.833 86.549 65.120 87.316 C 64.728 87.738,64.147 88.608,63.828 89.250 C 63.510 89.892,63.235 90.444,63.216 90.478 C 62.747 91.332,57.893 87.117,56.321 84.490 C 55.480 83.086,55.496 83.013,56.488 83.741 C 56.939 84.072,57.887 84.611,58.593 84.937 M59.065 89.980 C 59.411 90.362,61.731 91.926,63.041 92.661 L 63.999 93.198 64.337 92.409 C 64.744 91.459,64.725 91.444,65.333 93.187 C 66.138 95.496,66.274 95.841,67.145 97.789 C 68.828 101.555,70.866 104.728,73.274 107.330 C 75.068 109.268,75.088 109.817,73.448 111.897 C 72.081 113.629,65.460 118.389,65.249 117.791 C 65.183 117.602,63.964 112.604,63.424 110.305 L 63.202 109.360 63.875 108.472 C 66.191 105.415,66.223 102.668,63.969 100.458 C 62.990 99.498,62.378 99.164,62.903 99.875 C 65.466 103.350,64.244 107.344,60.683 107.131 C 53.947 106.726,52.032 96.260,57.654 90.580 C 58.674 89.551,58.676 89.550,59.065 89.980 " stroke="none" fill="#071666" fill-rule="evenodd"></path><path id="path1" d="M0.000 64.167 L 0.000 128.333 199.917 128.333 L 399.833 128.333 399.833 64.167 L 399.833 0.000 199.917 0.000 L 0.000 0.000 0.000 64.167 M16.810 8.875 C 19.610 12.999,24.098 16.122,30.161 18.165 C 31.522 18.623,31.609 18.611,33.545 17.680 C 57.934 5.948,87.721 14.058,102.801 36.535 C 119.764 61.819,112.937 96.009,87.583 112.740 C 83.587 115.377,83.325 115.482,83.059 114.542 C 82.962 114.198,82.605 112.979,82.266 111.833 C 81.470 109.143,80.160 104.051,79.499 101.083 C 78.595 97.018,78.079 94.430,77.009 88.583 C 76.603 86.366,75.489 79.087,74.993 75.417 C 74.575 72.315,74.602 72.369,73.744 72.954 C 73.381 73.201,72.697 73.561,72.225 73.753 L 71.366 74.102 71.929 74.995 C 73.236 77.069,74.065 80.020,74.061 82.583 C 74.055 85.326,74.016 85.368,72.528 84.248 C 71.013 83.109,71.021 83.108,70.424 84.444 C 69.811 85.816,69.038 86.775,67.750 87.760 C 65.531 89.458,65.489 89.591,66.347 92.190 C 68.005 97.212,70.381 101.119,74.204 105.108 C 76.868 107.887,77.440 109.568,76.532 111.955 C 74.930 116.172,67.595 121.306,63.139 121.330 C 62.408 121.334,62.531 121.775,61.492 115.417 L 60.783 111.083 58.933 111.070 C 55.556 111.046,53.168 109.906,51.805 107.667 C 49.665 104.153,51.437 96.020,55.731 89.643 L 56.806 88.047 55.747 86.778 C 52.033 82.329,51.458 79.287,53.438 74.570 C 53.480 74.471,53.192 74.295,52.799 74.179 C 48.262 72.840,45.712 67.987,47.204 63.537 L 47.609 62.331 46.929 62.156 C 45.725 61.847,45.314 61.650,46.083 61.750 C 55.644 62.995,61.228 62.708,62.651 60.899 C 63.113 60.312,63.086 60.017,62.428 58.477 C 62.263 58.090,64.125 57.003,64.353 57.353 C 65.012 58.366,65.151 60.740,64.600 61.581 L 64.346 61.969 66.131 62.091 C 68.374 62.245,72.153 62.079,73.250 61.780 C 75.699 61.110,75.932 60.328,74.179 58.667 C 73.265 57.801,73.204 57.694,73.091 56.750 C 72.822 54.502,71.792 50.667,71.457 50.667 C 71.369 50.667,70.837 51.030,70.274 51.474 C 68.650 52.755,66.302 54.272,64.706 55.072 C 62.390 56.234,62.560 56.251,60.912 54.691 C 54.452 48.576,48.193 46.672,45.881 50.118 C 44.498 52.179,44.280 53.240,43.748 60.500 C 42.581 76.393,41.579 88.323,40.262 102.004 C 40.038 104.326,39.773 106.925,38.905 115.333 C 38.758 116.754,38.587 117.970,38.525 118.035 C 37.862 118.734,27.907 113.088,23.344 109.425 C 8.134 97.216,0.216 76.127,3.848 57.500 C 5.840 47.288,9.603 39.220,15.870 31.727 L 17.005 30.370 16.588 27.996 C 15.662 22.714,15.218 12.887,15.722 8.792 C 15.890 7.418,15.817 7.413,16.810 8.875 M157.333 26.241 C 160.868 26.712,164.598 27.594,167.248 28.587 C 168.971 29.232,170.333 29.818,170.333 29.914 C 170.333 29.950,169.951 31.352,169.483 33.031 C 169.016 34.710,168.525 36.496,168.392 37.000 C 168.162 37.876,167.586 39.944,166.724 42.990 C 166.249 44.668,166.305 44.596,165.720 44.271 C 162.310 42.377,154.739 40.667,149.765 40.667 C 142.887 40.667,138.346 43.497,138.048 47.971 C 137.752 52.417,140.833 54.930,151.583 59.011 C 167.345 64.993,173.500 71.900,173.500 83.604 C 173.500 101.470,154.848 111.827,130.777 107.326 C 125.270 106.296,118.323 103.855,118.566 103.035 C 118.613 102.878,118.877 101.813,119.153 100.667 C 120.704 94.223,122.149 88.462,122.234 88.377 C 122.288 88.323,122.764 88.491,123.291 88.749 C 133.024 93.526,145.476 94.699,150.998 91.360 C 153.611 89.780,154.710 87.943,154.803 85.000 C 154.955 80.178,151.874 77.350,142.917 74.086 C 126.411 68.072,119.500 60.887,119.500 49.742 C 119.500 37.307,129.434 27.813,144.167 26.167 C 145.129 26.060,146.029 25.945,146.167 25.912 C 146.897 25.739,155.453 25.991,157.333 26.241 M225.228 26.313 C 244.383 29.767,256.000 44.907,256.000 66.416 C 256.000 92.072,240.867 108.233,216.833 108.245 C 195.874 108.256,181.552 94.833,179.252 73.024 C 176.880 50.519,188.534 31.778,207.917 26.932 C 212.618 25.757,220.567 25.473,225.228 26.313 M307.401 26.314 C 326.449 29.748,338.163 45.000,338.166 66.372 C 338.170 91.550,323.426 107.736,299.991 108.282 C 276.560 108.828,261.232 92.658,261.254 67.417 C 261.274 45.163,273.966 29.157,293.964 26.167 C 297.027 25.708,304.497 25.790,307.401 26.314 M379.296 26.088 C 384.581 26.637,389.315 27.779,392.792 29.344 C 394.034 29.903,394.012 29.691,393.151 32.792 C 392.776 34.144,392.336 35.737,392.172 36.333 C 392.009 36.929,391.709 38.017,391.505 38.750 C 391.301 39.483,391.035 40.458,390.913 40.917 C 390.403 42.829,389.960 44.419,389.926 44.458 C 389.906 44.481,389.211 44.205,388.383 43.846 C 375.129 38.098,361.758 40.351,361.751 48.333 C 361.748 52.780,364.193 54.725,375.164 59.002 C 389.857 64.729,395.699 70.453,396.929 80.327 C 399.449 100.559,379.034 112.723,352.333 106.898 C 348.030 105.959,342.167 103.784,342.167 103.127 C 342.167 103.031,342.423 101.932,342.737 100.685 C 343.332 98.317,344.722 92.662,345.342 90.083 C 345.806 88.150,345.692 88.204,347.514 89.060 C 361.331 95.552,376.050 94.454,378.256 86.768 C 379.761 81.523,376.228 77.656,366.750 74.176 C 357.651 70.834,353.029 68.241,349.075 64.259 C 339.628 54.744,341.590 38.949,353.178 31.234 C 357.517 28.345,362.286 26.791,369.417 25.943 C 370.881 25.768,377.100 25.860,379.296 26.088 M214.333 40.573 C 204.372 42.382,198.417 52.363,198.417 67.250 C 198.417 83.664,205.789 93.833,217.688 93.833 C 228.454 93.833,235.825 84.433,236.640 69.664 C 237.678 50.847,227.909 38.108,214.333 40.573 M296.500 40.571 C 287.925 42.155,281.930 50.310,280.683 62.083 C 278.732 80.509,286.733 93.833,299.750 93.833 C 311.401 93.833,318.742 83.461,318.741 67.000 C 318.739 49.312,309.380 38.191,296.500 40.571 M48.124 63.273 C 47.031 65.642,47.810 69.337,49.829 71.356 C 55.142 76.669,64.147 71.521,62.309 64.221 L 62.117 63.461 61.350 63.570 C 60.928 63.630,60.123 63.724,59.560 63.779 L 58.536 63.878 58.848 64.564 C 60.909 69.103,54.083 72.243,51.816 67.799 C 51.242 66.674,51.349 64.492,51.965 64.760 C 52.718 65.088,53.312 65.037,53.740 64.608 C 54.614 63.734,54.431 63.606,51.625 63.125 C 50.227 62.885,48.952 62.638,48.790 62.576 C 48.559 62.487,48.419 62.633,48.124 63.273 M63.047 62.967 C 62.890 63.067,62.899 63.277,63.089 63.908 C 63.441 65.079,63.403 67.247,63.007 68.520 C 62.827 69.097,62.696 69.575,62.715 69.582 C 62.734 69.590,63.379 69.721,64.147 69.874 C 65.895 70.221,68.575 71.509,69.794 72.587 L 70.671 73.363 71.442 73.100 C 75.143 71.840,77.343 67.653,76.262 63.933 C 75.937 62.816,75.808 62.740,74.828 63.085 C 74.420 63.229,73.663 63.391,73.144 63.445 L 72.202 63.544 72.600 64.397 C 74.731 68.976,67.949 72.307,65.654 67.808 C 65.174 66.867,65.243 64.717,65.750 64.814 C 67.120 65.077,68.000 64.668,68.000 63.770 C 68.000 63.433,67.854 63.390,65.792 63.119 C 63.296 62.790,63.323 62.792,63.047 62.967 " stroke="none" fill="#e4e4e4" fill-rule="evenodd"></path><path id="path2" d="M19.251 17.958 C 19.293 18.210,19.409 19.387,19.508 20.573 C 19.843 24.594,20.714 30.274,21.509 33.629 C 23.810 43.342,30.596 51.434,38.583 53.990 C 40.822 54.706,41.667 54.803,41.667 54.345 C 41.667 53.531,42.546 50.515,43.125 49.341 C 46.079 43.356,52.299 43.833,60.818 50.699 C 63.439 52.812,63.074 52.735,64.933 51.570 C 70.991 47.774,75.160 42.763,76.912 37.172 C 78.583 31.838,77.941 27.207,75.277 25.389 C 72.940 23.793,65.385 22.979,60.287 23.773 L 59.658 23.871 61.081 25.203 C 63.190 27.176,65.305 30.570,66.639 34.125 C 67.060 35.244,67.025 35.229,66.065 33.875 C 63.018 29.574,57.363 26.101,50.798 24.498 C 48.172 23.857,47.836 23.863,48.982 24.531 C 51.515 26.007,53.501 29.265,54.549 33.667 C 55.303 36.832,55.274 36.977,54.274 35.071 C 50.536 27.952,45.056 24.351,36.417 23.338 C 28.729 22.436,23.328 20.694,20.055 18.059 C 19.214 17.382,19.154 17.374,19.251 17.958 M57.653 90.582 C 52.032 96.260,53.948 106.726,60.683 107.131 C 64.220 107.343,65.425 103.608,62.971 100.041 L 62.451 99.286 62.990 99.601 C 66.080 101.409,66.446 105.078,63.875 108.472 L 63.202 109.360 63.424 110.305 C 63.964 112.604,65.183 117.602,65.249 117.791 C 65.460 118.389,72.081 113.629,73.448 111.897 C 75.099 109.804,75.074 109.263,73.236 107.299 C 70.116 103.965,67.435 99.253,65.497 93.697 C 64.753 91.565,64.631 91.442,64.311 92.510 C 64.144 93.065,64.058 93.155,63.774 93.065 C 63.151 92.867,60.778 91.350,59.070 90.058 L 58.556 89.670 57.653 90.582 " stroke="none" fill="#db355d" fill-rule="evenodd"></path><path id="path3" d="M15.550 11.667 C 15.550 12.171,15.581 12.377,15.619 12.125 C 15.658 11.873,15.658 11.460,15.619 11.208 C 15.581 10.956,15.550 11.162,15.550 11.667 M54.125 12.451 C 54.331 12.491,54.669 12.491,54.875 12.451 C 55.081 12.411,54.913 12.379,54.500 12.379 C 54.087 12.379,53.919 12.411,54.125 12.451 M59.625 12.451 C 59.831 12.491,60.169 12.491,60.375 12.451 C 60.581 12.411,60.413 12.379,60.000 12.379 C 59.587 12.379,59.419 12.411,59.625 12.451 M15.548 18.417 C 15.549 18.875,15.581 19.043,15.620 18.789 C 15.658 18.536,15.657 18.161,15.617 17.956 C 15.578 17.751,15.546 17.958,15.548 18.417 M146.711 25.953 C 146.964 25.991,147.339 25.990,147.544 25.951 C 147.749 25.911,147.542 25.880,147.083 25.881 C 146.625 25.882,146.457 25.915,146.711 25.953 M152.458 25.954 C 152.756 25.991,153.244 25.991,153.542 25.954 C 153.840 25.917,153.596 25.887,153.000 25.887 C 152.404 25.887,152.160 25.917,152.458 25.954 M214.127 25.951 C 214.334 25.991,214.634 25.990,214.794 25.948 C 214.953 25.906,214.783 25.874,214.417 25.875 C 214.050 25.877,213.920 25.911,214.127 25.951 M221.294 25.951 C 221.501 25.991,221.801 25.990,221.960 25.948 C 222.120 25.906,221.950 25.874,221.583 25.875 C 221.217 25.877,221.086 25.911,221.294 25.951 M296.294 25.951 C 296.501 25.991,296.801 25.990,296.960 25.948 C 297.120 25.906,296.950 25.874,296.583 25.875 C 296.217 25.877,296.086 25.911,296.294 25.951 M303.460 25.951 C 303.668 25.991,303.968 25.990,304.127 25.948 C 304.286 25.906,304.117 25.874,303.750 25.875 C 303.383 25.877,303.253 25.911,303.460 25.951 M370.208 25.953 C 370.460 25.991,370.873 25.991,371.125 25.953 C 371.377 25.915,371.171 25.883,370.667 25.883 C 370.162 25.883,369.956 25.915,370.208 25.953 M376.128 25.954 C 376.428 25.991,376.878 25.990,377.128 25.952 C 377.378 25.914,377.133 25.884,376.583 25.885 C 376.033 25.886,375.828 25.917,376.128 25.954 M95.917 28.333 C 96.553 28.975,97.112 29.500,97.158 29.500 C 97.204 29.500,96.720 28.975,96.083 28.333 C 95.447 27.692,94.888 27.167,94.842 27.167 C 94.796 27.167,95.280 27.692,95.917 28.333 M125.909 34.208 L 125.250 34.917 125.958 34.258 C 126.617 33.645,126.743 33.500,126.617 33.500 C 126.590 33.500,126.271 33.819,125.909 34.208 M273.906 35.542 L 273.417 36.083 273.958 35.594 C 274.463 35.138,274.577 35.000,274.448 35.000 C 274.419 35.000,274.175 35.244,273.906 35.542 M190.579 36.708 L 189.417 37.917 190.625 36.754 C 191.747 35.675,191.909 35.500,191.787 35.500 C 191.762 35.500,191.218 36.044,190.579 36.708 M216.958 40.287 C 217.256 40.324,217.744 40.324,218.042 40.287 C 218.340 40.250,218.096 40.220,217.500 40.220 C 216.904 40.220,216.660 40.250,216.958 40.287 M299.121 40.287 C 299.417 40.324,299.942 40.324,300.288 40.288 C 300.634 40.252,300.392 40.222,299.750 40.221 C 299.108 40.221,298.825 40.250,299.121 40.287 M311.326 45.042 C 312.017 45.778,312.167 45.910,312.167 45.785 C 312.167 45.758,311.810 45.402,311.375 44.993 L 310.583 44.250 311.326 45.042 M119.542 47.917 C 119.544 48.283,119.578 48.414,119.618 48.206 C 119.658 47.999,119.656 47.699,119.615 47.540 C 119.573 47.380,119.540 47.550,119.542 47.917 M361.548 48.417 C 361.549 48.875,361.581 49.043,361.620 48.789 C 361.658 48.536,361.657 48.161,361.617 47.956 C 361.578 47.751,361.546 47.958,361.548 48.417 M119.539 51.667 C 119.539 51.987,119.573 52.119,119.615 51.958 C 119.657 51.798,119.657 51.535,119.615 51.375 C 119.573 51.215,119.539 51.346,119.539 51.667 M363.500 53.083 C 363.811 53.404,364.103 53.667,364.149 53.667 C 364.195 53.667,363.978 53.404,363.667 53.083 C 363.356 52.762,363.064 52.500,363.018 52.500 C 362.972 52.500,363.189 52.762,363.500 53.083 M61.493 55.208 C 62.184 55.944,62.333 56.077,62.333 55.951 C 62.333 55.925,61.977 55.568,61.542 55.160 L 60.750 54.417 61.493 55.208 M45.500 61.731 C 45.500 61.879,46.174 61.956,46.260 61.818 C 46.311 61.735,46.161 61.667,45.927 61.667 C 45.692 61.667,45.500 61.695,45.500 61.731 M111.875 62.417 C 111.877 62.783,111.911 62.914,111.951 62.706 C 111.991 62.499,111.990 62.199,111.948 62.040 C 111.906 61.880,111.874 62.050,111.875 62.417 M65.208 62.115 C 65.369 62.157,65.631 62.157,65.792 62.115 C 65.952 62.073,65.821 62.039,65.500 62.039 C 65.179 62.039,65.048 62.073,65.208 62.115 M255.875 62.917 C 255.877 63.283,255.911 63.414,255.951 63.206 C 255.991 62.999,255.990 62.699,255.948 62.540 C 255.906 62.380,255.874 62.550,255.875 62.917 M55.042 62.621 C 55.385 62.657,55.948 62.657,56.292 62.621 C 56.635 62.585,56.354 62.556,55.667 62.556 C 54.979 62.556,54.698 62.585,55.042 62.621 M318.709 63.250 C 318.711 63.617,318.745 63.747,318.785 63.540 C 318.824 63.332,318.823 63.032,318.781 62.873 C 318.739 62.714,318.707 62.883,318.709 63.250 M338.042 63.583 C 338.044 63.950,338.078 64.080,338.118 63.873 C 338.158 63.666,338.156 63.366,338.115 63.206 C 338.073 63.047,338.040 63.217,338.042 63.583 M261.205 63.833 C 261.205 64.154,261.240 64.285,261.282 64.125 C 261.323 63.965,261.323 63.702,261.282 63.542 C 261.240 63.381,261.205 63.512,261.205 63.833 M349.083 64.333 C 349.628 64.883,350.110 65.333,350.156 65.333 C 350.202 65.333,349.794 64.883,349.250 64.333 C 348.706 63.783,348.223 63.333,348.177 63.333 C 348.131 63.333,348.539 63.783,349.083 64.333 M179.039 64.333 C 179.039 64.654,179.073 64.785,179.115 64.625 C 179.157 64.465,179.157 64.202,179.115 64.042 C 179.073 63.881,179.039 64.012,179.039 64.333 M280.379 65.000 C 280.379 65.412,280.411 65.581,280.451 65.375 C 280.491 65.169,280.491 64.831,280.451 64.625 C 280.411 64.419,280.379 64.587,280.379 65.000 M112.066 67.167 C 112.066 68.496,112.092 69.040,112.124 68.375 C 112.155 67.710,112.155 66.623,112.124 65.958 C 112.092 65.294,112.066 65.837,112.066 67.167 M198.233 67.250 C 198.234 68.625,198.259 69.165,198.291 68.451 C 198.322 67.736,198.322 66.611,198.290 65.951 C 198.259 65.290,198.233 65.875,198.233 67.250 M236.712 65.667 C 236.712 66.079,236.745 66.248,236.784 66.042 C 236.824 65.835,236.824 65.498,236.784 65.292 C 236.745 65.085,236.712 65.254,236.712 65.667 M318.897 66.917 C 318.897 68.017,318.924 68.445,318.957 67.868 C 318.990 67.292,318.989 66.392,318.956 65.868 C 318.923 65.345,318.897 65.817,318.897 66.917 M47.552 66.083 C 47.553 66.633,47.584 66.838,47.621 66.539 C 47.658 66.239,47.657 65.789,47.619 65.539 C 47.581 65.288,47.551 65.533,47.552 66.083 M76.548 65.917 C 76.549 66.375,76.581 66.543,76.620 66.289 C 76.658 66.036,76.657 65.661,76.617 65.456 C 76.578 65.251,76.546 65.458,76.548 65.917 M3.061 66.917 C 3.061 67.833,3.089 68.187,3.123 67.703 C 3.157 67.218,3.156 66.468,3.122 66.036 C 3.088 65.604,3.060 66.000,3.061 66.917 M167.333 68.083 C 167.644 68.404,167.936 68.667,167.982 68.667 C 168.028 68.667,167.811 68.404,167.500 68.083 C 167.189 67.762,166.897 67.500,166.851 67.500 C 166.805 67.500,167.022 67.762,167.333 68.083 M236.714 68.250 C 236.716 68.708,236.748 68.876,236.786 68.623 C 236.825 68.369,236.824 67.994,236.784 67.789 C 236.744 67.584,236.713 67.792,236.714 68.250 M338.045 69.167 C 338.045 69.579,338.078 69.748,338.118 69.542 C 338.157 69.335,338.157 68.998,338.118 68.792 C 338.078 68.585,338.045 68.754,338.045 69.167 M280.379 69.500 C 280.379 69.912,280.411 70.081,280.451 69.875 C 280.491 69.669,280.491 69.331,280.451 69.125 C 280.411 68.919,280.379 69.087,280.379 69.500 M255.879 69.833 C 255.879 70.246,255.911 70.415,255.951 70.208 C 255.991 70.002,255.991 69.665,255.951 69.458 C 255.911 69.252,255.879 69.421,255.879 69.833 M318.709 70.750 C 318.711 71.117,318.745 71.247,318.785 71.040 C 318.824 70.832,318.823 70.532,318.781 70.373 C 318.739 70.214,318.707 70.383,318.709 70.750 M179.039 70.833 C 179.039 71.154,179.073 71.285,179.115 71.125 C 179.157 70.965,179.157 70.702,179.115 70.542 C 179.073 70.381,179.039 70.512,179.039 70.833 M74.240 71.375 L 73.750 71.917 74.292 71.427 C 74.590 71.158,74.833 70.914,74.833 70.885 C 74.833 70.757,74.696 70.870,74.240 71.375 M111.872 71.833 C 111.872 72.154,111.906 72.285,111.948 72.125 C 111.990 71.965,111.990 71.702,111.948 71.542 C 111.906 71.381,111.872 71.512,111.872 71.833 M48.667 71.552 C 48.667 71.581,48.910 71.825,49.208 72.094 L 49.750 72.583 49.260 72.042 C 48.804 71.537,48.667 71.423,48.667 71.552 M375.833 78.885 C 375.833 78.914,376.077 79.158,376.375 79.427 L 376.917 79.917 376.427 79.375 C 375.971 78.870,375.833 78.757,375.833 78.885 M74.055 82.583 C 74.055 83.225,74.086 83.467,74.122 83.121 C 74.158 82.775,74.157 82.250,74.120 81.955 C 74.083 81.659,74.054 81.942,74.055 82.583 M397.062 83.417 C 397.063 84.425,397.090 84.816,397.123 84.286 C 397.157 83.755,397.156 82.930,397.123 82.452 C 397.089 81.974,397.062 82.408,397.062 83.417 M154.889 84.667 C 154.889 85.354,154.919 85.635,154.955 85.292 C 154.991 84.948,154.991 84.385,154.955 84.042 C 154.919 83.698,154.889 83.979,154.889 84.667 M378.545 84.667 C 378.545 85.079,378.578 85.248,378.618 85.042 C 378.657 84.835,378.657 84.498,378.618 84.292 C 378.578 84.085,378.545 84.254,378.545 84.667 M140.125 93.284 C 140.331 93.324,140.669 93.324,140.875 93.284 C 141.081 93.245,140.912 93.212,140.500 93.212 C 140.087 93.212,139.919 93.245,140.125 93.284 M143.627 93.285 C 143.834 93.324,144.134 93.323,144.294 93.281 C 144.453 93.239,144.283 93.207,143.917 93.209 C 143.550 93.211,143.420 93.245,143.627 93.285 M363.711 93.286 C 363.964 93.325,364.339 93.324,364.544 93.284 C 364.749 93.244,364.542 93.213,364.083 93.214 C 363.625 93.216,363.457 93.248,363.711 93.286 M367.208 93.282 C 367.369 93.323,367.631 93.323,367.792 93.282 C 367.952 93.240,367.821 93.205,367.500 93.205 C 367.179 93.205,367.048 93.240,367.208 93.282 M190.250 98.000 C 190.887 98.642,191.445 99.167,191.491 99.167 C 191.537 99.167,191.053 98.642,190.417 98.000 C 189.780 97.358,189.221 96.833,189.176 96.833 C 189.130 96.833,189.613 97.358,190.250 98.000 M244.494 97.792 L 243.583 98.750 244.542 97.839 C 245.432 96.993,245.576 96.833,245.453 96.833 C 245.427 96.833,244.995 97.265,244.494 97.792 M97.406 104.375 L 96.917 104.917 97.458 104.427 C 97.963 103.971,98.077 103.833,97.948 103.833 C 97.919 103.833,97.675 104.077,97.406 104.375 M19.000 105.583 C 19.498 106.087,19.943 106.500,19.989 106.500 C 20.034 106.500,19.665 106.087,19.167 105.583 C 18.669 105.079,18.224 104.667,18.178 104.667 C 18.132 104.667,18.502 105.079,19.000 105.583 M94.406 107.375 L 93.917 107.917 94.458 107.427 C 94.756 107.158,95.000 106.914,95.000 106.885 C 95.000 106.757,94.862 106.870,94.406 107.375 M138.542 108.286 C 138.794 108.324,139.206 108.324,139.458 108.286 C 139.710 108.248,139.504 108.217,139.000 108.217 C 138.496 108.217,138.290 108.248,138.542 108.286 M143.128 108.287 C 143.428 108.325,143.878 108.324,144.128 108.286 C 144.378 108.248,144.133 108.217,143.583 108.218 C 143.033 108.219,142.828 108.250,143.128 108.287 M219.708 108.282 C 219.869 108.323,220.131 108.323,220.292 108.282 C 220.452 108.240,220.321 108.205,220.000 108.205 C 219.679 108.205,219.548 108.240,219.708 108.282 M295.375 108.282 C 295.535 108.323,295.798 108.323,295.958 108.282 C 296.119 108.240,295.987 108.205,295.667 108.205 C 295.346 108.205,295.215 108.240,295.375 108.282 M301.875 108.282 C 302.035 108.323,302.298 108.323,302.458 108.282 C 302.619 108.240,302.487 108.205,302.167 108.205 C 301.846 108.205,301.715 108.240,301.875 108.282 M362.208 108.286 C 362.460 108.324,362.873 108.324,363.125 108.286 C 363.377 108.248,363.171 108.217,362.667 108.217 C 362.162 108.217,361.956 108.248,362.208 108.286 M366.708 108.286 C 366.960 108.324,367.373 108.324,367.625 108.286 C 367.877 108.248,367.671 108.217,367.167 108.217 C 366.662 108.217,366.456 108.248,366.708 108.286 M58.542 111.121 C 58.885 111.157,59.448 111.157,59.792 111.121 C 60.135 111.085,59.854 111.056,59.167 111.056 C 58.479 111.056,58.198 111.085,58.542 111.121 " stroke="none" fill="#8e94b3" fill-rule="evenodd"></path><path id="path4" d="M15.717 10.167 C 15.717 10.671,15.748 10.877,15.786 10.625 C 15.824 10.373,15.824 9.960,15.786 9.708 C 15.748 9.456,15.717 9.662,15.717 10.167 M19.083 11.833 C 19.720 12.475,20.279 13.000,20.324 13.000 C 20.370 13.000,19.887 12.475,19.250 11.833 C 18.613 11.192,18.055 10.667,18.009 10.667 C 17.963 10.667,18.447 11.192,19.083 11.833 M56.215 12.457 C 56.838 12.489,57.813 12.489,58.382 12.457 C 58.951 12.424,58.442 12.398,57.250 12.398 C 56.058 12.398,55.593 12.425,56.215 12.457 M15.567 15.083 C 15.568 16.550,15.593 17.128,15.624 16.367 C 15.655 15.606,15.655 14.406,15.624 13.700 C 15.593 12.994,15.567 13.617,15.567 15.083 M15.718 19.917 C 15.719 20.467,15.750 20.672,15.787 20.372 C 15.825 20.072,15.824 19.622,15.786 19.372 C 15.748 19.122,15.717 19.367,15.718 19.917 M65.460 23.451 C 65.668 23.491,65.968 23.490,66.127 23.448 C 66.286 23.406,66.117 23.374,65.750 23.375 C 65.383 23.377,65.253 23.411,65.460 23.451 M148.882 25.957 C 149.504 25.989,150.479 25.989,151.049 25.957 C 151.618 25.924,151.108 25.898,149.917 25.898 C 148.725 25.898,148.259 25.925,148.882 25.957 M215.292 25.951 C 215.498 25.991,215.835 25.991,216.042 25.951 C 216.248 25.911,216.079 25.879,215.667 25.879 C 215.254 25.879,215.085 25.911,215.292 25.951 M219.958 25.951 C 220.165 25.991,220.502 25.991,220.708 25.951 C 220.915 25.911,220.746 25.879,220.333 25.879 C 219.921 25.879,219.752 25.911,219.958 25.951 M297.458 25.951 C 297.665 25.991,298.002 25.991,298.208 25.951 C 298.415 25.911,298.246 25.879,297.833 25.879 C 297.421 25.879,297.252 25.911,297.458 25.951 M302.125 25.951 C 302.331 25.991,302.669 25.991,302.875 25.951 C 303.081 25.911,302.912 25.879,302.500 25.879 C 302.087 25.879,301.919 25.911,302.125 25.951 M372.549 25.957 C 373.171 25.989,374.146 25.989,374.715 25.957 C 375.284 25.924,374.775 25.898,373.583 25.898 C 372.392 25.898,371.926 25.925,372.549 25.957 M145.375 26.115 C 145.535 26.157,145.798 26.157,145.958 26.115 C 146.119 26.073,145.987 26.039,145.667 26.039 C 145.346 26.039,145.215 26.073,145.375 26.115 M154.460 26.118 C 154.668 26.158,154.968 26.156,155.127 26.115 C 155.286 26.073,155.117 26.040,154.750 26.042 C 154.383 26.044,154.253 26.078,154.460 26.118 M368.875 26.115 C 369.035 26.157,369.298 26.157,369.458 26.115 C 369.619 26.073,369.488 26.039,369.167 26.039 C 368.846 26.039,368.715 26.073,368.875 26.115 M377.960 26.118 C 378.168 26.158,378.468 26.156,378.627 26.115 C 378.786 26.073,378.617 26.040,378.250 26.042 C 377.883 26.044,377.753 26.078,377.960 26.118 M94.333 26.917 C 94.644 27.238,94.936 27.500,94.982 27.500 C 95.028 27.500,94.811 27.238,94.500 26.917 C 94.189 26.596,93.897 26.333,93.851 26.333 C 93.805 26.333,94.022 26.596,94.333 26.917 M97.167 29.719 C 97.167 29.748,97.410 29.991,97.708 30.260 L 98.250 30.750 97.760 30.208 C 97.304 29.703,97.167 29.590,97.167 29.719 M349.406 34.375 L 348.917 34.917 349.458 34.427 C 349.963 33.971,350.077 33.833,349.948 33.833 C 349.919 33.833,349.675 34.077,349.406 34.375 M243.333 34.879 C 243.333 34.904,243.915 35.486,244.625 36.171 L 245.917 37.417 244.671 36.125 C 243.514 34.925,243.333 34.757,243.333 34.879 M326.667 36.083 C 327.165 36.587,327.609 37.000,327.655 37.000 C 327.701 37.000,327.331 36.587,326.833 36.083 C 326.335 35.579,325.891 35.167,325.845 35.167 C 325.799 35.167,326.169 35.579,326.667 36.083 M272.906 36.542 L 272.417 37.083 272.958 36.594 C 273.463 36.138,273.577 36.000,273.448 36.000 C 273.419 36.000,273.175 36.244,272.906 36.542 M149.042 40.621 C 149.385 40.657,149.948 40.657,150.292 40.621 C 150.635 40.585,150.354 40.556,149.667 40.556 C 148.979 40.556,148.698 40.585,149.042 40.621 M372.708 40.621 C 373.052 40.657,373.615 40.657,373.958 40.621 C 374.302 40.585,374.021 40.556,373.333 40.556 C 372.646 40.556,372.365 40.585,372.708 40.621 M287.667 45.083 C 287.262 45.496,286.968 45.833,287.014 45.833 C 287.060 45.833,287.428 45.496,287.833 45.083 C 288.238 44.671,288.532 44.333,288.486 44.333 C 288.440 44.333,288.072 44.671,287.667 45.083 M137.879 48.333 C 137.879 48.746,137.911 48.915,137.951 48.708 C 137.991 48.502,137.991 48.165,137.951 47.958 C 137.911 47.752,137.879 47.921,137.879 48.333 M48.792 48.287 C 49.090 48.324,49.577 48.324,49.875 48.287 C 50.173 48.250,49.929 48.220,49.333 48.220 C 48.737 48.220,48.494 48.250,48.792 48.287 M119.558 49.833 C 119.558 50.612,119.587 50.931,119.622 50.542 C 119.657 50.152,119.657 49.515,119.622 49.125 C 119.587 48.735,119.558 49.054,119.558 49.833 M139.917 53.167 C 140.275 53.533,140.605 53.833,140.651 53.833 C 140.697 53.833,140.441 53.533,140.083 53.167 C 139.725 52.800,139.395 52.500,139.349 52.500 C 139.303 52.500,139.559 52.800,139.917 53.167 M60.167 53.917 C 60.478 54.237,60.770 54.500,60.815 54.500 C 60.861 54.500,60.644 54.237,60.333 53.917 C 60.022 53.596,59.730 53.333,59.685 53.333 C 59.639 53.333,59.856 53.596,60.167 53.917 M43.705 59.333 C 43.705 59.654,43.740 59.785,43.782 59.625 C 43.823 59.465,43.823 59.202,43.782 59.042 C 43.740 58.881,43.705 59.012,43.705 59.333 M64.872 59.833 C 64.872 60.154,64.906 60.285,64.948 60.125 C 64.990 59.965,64.990 59.702,64.948 59.542 C 64.906 59.381,64.872 59.512,64.872 59.833 M67.549 62.290 C 68.171 62.323,69.146 62.322,69.715 62.290 C 70.284 62.257,69.775 62.231,68.583 62.231 C 67.392 62.232,66.926 62.258,67.549 62.290 M53.377 62.620 C 53.631 62.658,54.006 62.657,54.211 62.617 C 54.416 62.578,54.208 62.546,53.750 62.548 C 53.292 62.549,53.124 62.581,53.377 62.620 M57.127 62.618 C 57.334 62.658,57.634 62.656,57.794 62.615 C 57.953 62.573,57.783 62.540,57.417 62.542 C 57.050 62.544,56.920 62.578,57.127 62.618 M111.872 63.500 C 111.872 63.821,111.906 63.952,111.948 63.792 C 111.990 63.631,111.990 63.369,111.948 63.208 C 111.906 63.048,111.872 63.179,111.872 63.500 M43.379 63.833 C 43.379 64.246,43.411 64.415,43.451 64.208 C 43.491 64.002,43.491 63.665,43.451 63.458 C 43.411 63.252,43.379 63.421,43.379 63.833 M125.583 64.333 C 126.220 64.975,126.779 65.500,126.824 65.500 C 126.870 65.500,126.387 64.975,125.750 64.333 C 125.113 63.692,124.555 63.167,124.509 63.167 C 124.463 63.167,124.947 63.692,125.583 64.333 M53.865 63.436 C 54.020 63.483,54.182 63.685,54.225 63.885 C 54.292 64.191,54.300 64.183,54.277 63.835 C 54.259 63.553,54.143 63.409,53.917 63.386 C 53.677 63.362,53.662 63.376,53.865 63.436 M72.000 63.471 C 72.000 63.547,72.225 63.576,72.500 63.536 C 72.775 63.495,73.000 63.433,73.000 63.398 C 73.000 63.362,72.775 63.333,72.500 63.333 C 72.225 63.333,72.000 63.395,72.000 63.471 M280.372 63.833 C 280.372 64.154,280.406 64.285,280.448 64.125 C 280.490 63.965,280.490 63.702,280.448 63.542 C 280.406 63.381,280.372 63.512,280.372 63.833 M236.714 64.250 C 236.716 64.708,236.748 64.876,236.786 64.623 C 236.825 64.369,236.824 63.994,236.784 63.789 C 236.744 63.584,236.713 63.792,236.714 64.250 M255.902 66.333 C 255.902 67.938,255.927 68.594,255.957 67.792 C 255.988 66.990,255.988 65.677,255.957 64.875 C 255.927 64.073,255.902 64.729,255.902 66.333 M58.333 63.804 C 58.333 63.880,58.558 63.909,58.833 63.869 C 59.108 63.829,59.333 63.767,59.333 63.731 C 59.333 63.696,59.108 63.667,58.833 63.667 C 58.558 63.667,58.333 63.729,58.333 63.804 M198.205 64.333 C 198.205 64.654,198.240 64.785,198.282 64.625 C 198.323 64.465,198.323 64.202,198.282 64.042 C 198.240 63.881,198.205 64.012,198.205 64.333 M318.875 64.417 C 318.877 64.783,318.911 64.914,318.951 64.706 C 318.991 64.499,318.990 64.199,318.948 64.040 C 318.906 63.880,318.874 64.050,318.875 64.417 M338.065 66.333 C 338.065 67.571,338.092 68.077,338.124 67.458 C 338.156 66.840,338.156 65.827,338.124 65.208 C 338.092 64.590,338.065 65.096,338.065 66.333 M261.214 65.083 C 261.216 65.542,261.248 65.709,261.286 65.456 C 261.325 65.203,261.324 64.828,261.284 64.623 C 261.244 64.418,261.213 64.625,261.214 65.083 M46.872 65.167 C 46.872 65.487,46.906 65.619,46.948 65.458 C 46.990 65.298,46.990 65.035,46.948 64.875 C 46.906 64.715,46.872 64.846,46.872 65.167 M179.068 67.583 C 179.068 69.142,179.093 69.802,179.124 69.050 C 179.155 68.298,179.155 67.023,179.124 66.217 C 179.094 65.410,179.068 66.025,179.068 67.583 M52.542 65.115 C 52.702 65.157,52.965 65.157,53.125 65.115 C 53.285 65.073,53.154 65.039,52.833 65.039 C 52.512 65.039,52.381 65.073,52.542 65.115 M43.212 66.000 C 43.212 66.412,43.245 66.581,43.284 66.375 C 43.324 66.169,43.324 65.831,43.284 65.625 C 43.245 65.419,43.212 65.587,43.212 66.000 M72.875 66.083 C 72.877 66.450,72.911 66.580,72.951 66.373 C 72.991 66.166,72.990 65.866,72.948 65.706 C 72.906 65.547,72.874 65.717,72.875 66.083 M46.879 67.000 C 46.879 67.412,46.911 67.581,46.951 67.375 C 46.991 67.169,46.991 66.831,46.951 66.625 C 46.911 66.419,46.879 66.587,46.879 67.000 M390.917 68.167 C 391.368 68.625,391.775 69.000,391.821 69.000 C 391.867 69.000,391.535 68.625,391.083 68.167 C 390.632 67.708,390.225 67.333,390.179 67.333 C 390.133 67.333,390.465 67.708,390.917 68.167 M318.875 69.417 C 318.877 69.783,318.911 69.914,318.951 69.706 C 318.991 69.499,318.990 69.199,318.948 69.040 C 318.906 68.880,318.874 69.050,318.875 69.417 M236.714 69.750 C 236.716 70.208,236.748 70.376,236.786 70.123 C 236.825 69.869,236.824 69.494,236.784 69.289 C 236.744 69.084,236.713 69.292,236.714 69.750 M261.217 70.167 C 261.217 70.671,261.248 70.877,261.286 70.625 C 261.324 70.373,261.324 69.960,261.286 69.708 C 261.248 69.456,261.217 69.662,261.217 70.167 M198.205 70.167 C 198.205 70.487,198.240 70.619,198.282 70.458 C 198.323 70.298,198.323 70.035,198.282 69.875 C 198.240 69.715,198.205 69.846,198.205 70.167 M42.872 70.333 C 42.872 70.654,42.906 70.785,42.948 70.625 C 42.990 70.465,42.990 70.202,42.948 70.042 C 42.906 69.881,42.872 70.012,42.872 70.333 M54.877 69.953 C 55.131 69.991,55.506 69.990,55.711 69.951 C 55.916 69.911,55.708 69.880,55.250 69.881 C 54.792 69.882,54.624 69.915,54.877 69.953 M111.875 70.750 C 111.877 71.117,111.911 71.247,111.951 71.040 C 111.991 70.832,111.990 70.532,111.948 70.373 C 111.906 70.214,111.874 70.383,111.875 70.750 M280.372 70.667 C 280.372 70.987,280.406 71.119,280.448 70.958 C 280.490 70.798,280.490 70.535,280.448 70.375 C 280.406 70.215,280.372 70.346,280.372 70.667 M49.660 71.375 C 50.068 71.810,50.425 72.167,50.451 72.167 C 50.577 72.167,50.444 72.017,49.708 71.326 L 48.917 70.583 49.660 71.375 M60.917 71.891 C 59.737 73.107,58.523 73.799,56.917 74.169 C 55.558 74.483,55.247 74.905,54.743 77.117 C 54.419 78.543,54.393 78.487,55.709 79.204 C 58.326 80.629,61.199 80.977,64.469 80.265 C 67.042 79.705,69.611 80.259,71.648 81.811 L 72.213 82.241 72.091 80.912 C 71.666 76.278,68.681 72.480,64.441 71.183 C 62.520 70.595,62.090 70.682,60.917 71.891 M60.240 71.542 L 59.750 72.083 60.292 71.594 C 60.590 71.325,60.833 71.081,60.833 71.052 C 60.833 70.923,60.696 71.037,60.240 71.542 M49.160 71.875 C 49.568 72.310,49.925 72.667,49.951 72.667 C 50.077 72.667,49.944 72.517,49.208 71.826 L 48.417 71.083 49.160 71.875 M42.709 72.583 C 42.711 72.950,42.745 73.080,42.785 72.873 C 42.824 72.666,42.823 72.366,42.781 72.206 C 42.739 72.047,42.707 72.217,42.709 72.583 M70.203 73.089 C 70.453 73.351,70.686 73.532,70.723 73.491 C 70.760 73.450,70.556 73.236,70.270 73.014 L 69.750 72.612 70.203 73.089 M71.240 74.016 C 71.178 74.116,71.263 74.323,71.429 74.474 C 71.714 74.734,71.718 74.732,71.502 74.446 C 71.305 74.186,71.306 74.119,71.511 73.990 C 71.661 73.895,71.676 73.837,71.552 73.836 C 71.442 73.834,71.302 73.916,71.240 74.016 M52.209 79.250 C 52.211 79.617,52.245 79.747,52.285 79.540 C 52.324 79.332,52.323 79.032,52.281 78.873 C 52.239 78.714,52.207 78.883,52.209 79.250 M42.042 80.750 C 42.044 81.117,42.078 81.247,42.118 81.040 C 42.158 80.832,42.156 80.532,42.115 80.373 C 42.073 80.214,42.040 80.383,42.042 80.750 M41.875 82.750 C 41.877 83.117,41.911 83.247,41.951 83.040 C 41.991 82.832,41.990 82.532,41.948 82.373 C 41.906 82.214,41.874 82.383,41.875 82.750 M55.667 83.268 C 55.667 84.868,62.639 91.528,63.216 90.478 C 63.235 90.444,63.510 89.892,63.828 89.250 C 64.147 88.608,64.728 87.738,65.120 87.316 L 65.833 86.549 64.458 86.450 C 61.724 86.251,58.340 85.101,56.488 83.741 C 56.036 83.409,55.667 83.197,55.667 83.268 M41.375 88.583 C 41.377 88.950,41.411 89.080,41.451 88.873 C 41.491 88.666,41.490 88.366,41.448 88.206 C 41.406 88.047,41.374 88.217,41.375 88.583 M205.250 88.833 C 205.608 89.200,205.938 89.500,205.984 89.500 C 206.030 89.500,205.775 89.200,205.417 88.833 C 205.059 88.467,204.728 88.167,204.682 88.167 C 204.637 88.167,204.892 88.467,205.250 88.833 M287.667 89.083 C 288.165 89.587,288.609 90.000,288.655 90.000 C 288.701 90.000,288.331 89.587,287.833 89.083 C 287.335 88.579,286.891 88.167,286.845 88.167 C 286.799 88.167,287.169 88.579,287.667 89.083 M311.410 89.208 L 310.583 90.083 311.458 89.256 C 311.940 88.801,312.333 88.408,312.333 88.381 C 312.333 88.257,312.179 88.395,311.410 89.208 M41.209 90.417 C 41.211 90.783,41.245 90.914,41.285 90.706 C 41.324 90.499,41.323 90.199,41.281 90.040 C 41.239 89.880,41.207 90.050,41.209 90.417 M138.960 93.285 C 139.168 93.324,139.468 93.323,139.627 93.281 C 139.786 93.239,139.617 93.207,139.250 93.209 C 138.883 93.211,138.753 93.245,138.960 93.285 M362.542 93.282 C 362.702 93.323,362.965 93.323,363.125 93.282 C 363.285 93.240,363.154 93.205,362.833 93.205 C 362.512 93.205,362.381 93.240,362.542 93.282 M368.208 93.282 C 368.369 93.323,368.631 93.323,368.792 93.282 C 368.952 93.240,368.821 93.205,368.500 93.205 C 368.179 93.205,368.048 93.240,368.208 93.282 M216.958 93.955 C 217.348 93.990,217.985 93.990,218.375 93.955 C 218.765 93.920,218.446 93.892,217.667 93.892 C 216.887 93.892,216.569 93.920,216.958 93.955 M299.129 93.956 C 299.521 93.991,300.121 93.990,300.463 93.954 C 300.804 93.919,300.483 93.890,299.750 93.890 C 299.017 93.891,298.737 93.920,299.129 93.956 M40.705 95.833 C 40.705 96.154,40.740 96.285,40.782 96.125 C 40.823 95.965,40.823 95.702,40.782 95.542 C 40.740 95.381,40.705 95.513,40.705 95.833 M326.663 97.625 L 325.250 99.083 326.708 97.670 C 327.510 96.893,328.167 96.237,328.167 96.212 C 328.167 96.091,327.975 96.271,326.663 97.625 M272.493 98.042 C 273.184 98.778,273.333 98.910,273.333 98.785 C 273.333 98.758,272.977 98.402,272.542 97.993 L 271.750 97.250 272.493 98.042 M51.039 101.833 C 51.039 102.154,51.073 102.285,51.115 102.125 C 51.157 101.965,51.157 101.702,51.115 101.542 C 51.073 101.381,51.039 101.513,51.039 101.833 M40.039 103.000 C 40.039 103.321,40.073 103.452,40.115 103.292 C 40.157 103.131,40.157 102.869,40.115 102.708 C 40.073 102.548,40.039 102.679,40.039 103.000 M17.583 104.000 C 17.941 104.367,18.272 104.667,18.318 104.667 C 18.363 104.667,18.108 104.367,17.750 104.000 C 17.392 103.633,17.062 103.333,17.016 103.333 C 16.970 103.333,17.225 103.633,17.583 104.000 M74.083 105.167 C 74.905 105.992,75.614 106.667,75.660 106.667 C 75.706 106.667,75.071 105.992,74.250 105.167 C 73.429 104.342,72.719 103.667,72.674 103.667 C 72.628 103.667,73.262 104.342,74.083 105.167 M95.744 106.042 L 94.917 106.917 95.792 106.090 C 96.605 105.321,96.743 105.167,96.619 105.167 C 96.592 105.167,96.199 105.560,95.744 106.042 M20.667 107.083 C 20.978 107.404,21.270 107.667,21.315 107.667 C 21.361 107.667,21.144 107.404,20.833 107.083 C 20.522 106.763,20.230 106.500,20.185 106.500 C 20.139 106.500,20.356 106.763,20.667 107.083 M145.208 108.115 C 145.369 108.157,145.631 108.157,145.792 108.115 C 145.952 108.073,145.821 108.039,145.500 108.039 C 145.179 108.039,145.048 108.073,145.208 108.115 M360.542 108.115 C 360.702 108.157,360.965 108.157,361.125 108.115 C 361.285 108.073,361.154 108.039,360.833 108.039 C 360.512 108.039,360.381 108.073,360.542 108.115 M140.547 108.289 C 140.985 108.324,141.660 108.323,142.047 108.288 C 142.434 108.254,142.075 108.225,141.250 108.226 C 140.425 108.226,140.109 108.255,140.547 108.289 M214.461 108.287 C 214.761 108.325,215.211 108.324,215.461 108.286 C 215.712 108.248,215.467 108.217,214.917 108.218 C 214.367 108.219,214.162 108.250,214.461 108.287 M218.128 108.287 C 218.428 108.325,218.878 108.324,219.128 108.286 C 219.378 108.248,219.133 108.217,218.583 108.218 C 218.033 108.219,217.828 108.250,218.128 108.287 M296.628 108.287 C 296.928 108.325,297.378 108.324,297.628 108.286 C 297.878 108.248,297.633 108.217,297.083 108.218 C 296.533 108.219,296.328 108.250,296.628 108.287 M300.295 108.287 C 300.594 108.325,301.044 108.324,301.295 108.286 C 301.545 108.248,301.300 108.217,300.750 108.218 C 300.200 108.219,299.995 108.250,300.295 108.287 M364.213 108.289 C 364.652 108.324,365.327 108.323,365.713 108.288 C 366.100 108.254,365.742 108.225,364.917 108.226 C 364.092 108.226,363.775 108.255,364.213 108.289 M52.833 108.917 C 53.144 109.237,53.436 109.500,53.482 109.500 C 53.528 109.500,53.311 109.237,53.000 108.917 C 52.689 108.596,52.397 108.333,52.351 108.333 C 52.305 108.333,52.522 108.596,52.833 108.917 M60.448 110.941 C 60.649 110.985,60.851 111.147,60.897 111.302 C 60.957 111.504,60.971 111.490,60.947 111.250 C 60.924 111.024,60.780 110.908,60.498 110.889 C 60.151 110.866,60.142 110.875,60.448 110.941 M73.824 115.625 L 73.250 116.250 73.875 115.676 C 74.457 115.141,74.577 115.000,74.449 115.000 C 74.422 115.000,74.140 115.281,73.824 115.625 M38.705 115.833 C 38.705 116.154,38.740 116.285,38.782 116.125 C 38.823 115.965,38.823 115.702,38.782 115.542 C 38.740 115.381,38.705 115.513,38.705 115.833 M62.500 121.200 C 62.500 121.273,62.762 121.333,63.083 121.333 C 63.404 121.333,63.667 121.304,63.667 121.268 C 63.667 121.232,63.404 121.172,63.083 121.135 C 62.762 121.098,62.500 121.127,62.500 121.200 " stroke="none" fill="#7c7c9c" fill-rule="evenodd"></path></g></svg>